STARTFONT 2.1
FONT -Misc-TheBird-Medium-R-Normal--14-101-100-100-C-70-ISO10646-1
SIZE 10 100 100
FONTBOUNDINGBOX 8 14 0 -3
COMMENT "Generated by fontforge, http://fontforge.sourceforge.net"
STARTPROPERTIES 22
FONTNAME_REGISTRY ""
FOUNDRY "Misc"
FAMILY_NAME "TheBird"
WEIGHT_NAME "Medium"
SLANT "R"
SETWIDTH_NAME "Normal"
ADD_STYLE_NAME ""
PIXEL_SIZE 14
POINT_SIZE 101
RESOLUTION_X 100
RESOLUTION_Y 100
SPACING "C"
AVERAGE_WIDTH 70
CHARSET_REGISTRY "ISO10646"
CHARSET_ENCODING "1"
COPYRIGHT "install gentoo"
CAP_HEIGHT 8
X_HEIGHT 6
FONT_VERSION "1.10"
WEIGHT 10
RESOLUTION 138
QUAD_WIDTH 7
ENDPROPERTIES
CHARS 236
STARTCHAR U+0000
ENCODING 0
SWIDTH 392 0
DWIDTH 7 0
BBX 5 8 1 0
BITMAP
F8
88
88
88
88
88
88
F8
ENDCHAR
STARTCHAR U+0020
ENCODING 32
SWIDTH 392 0
DWIDTH 7 0
BBX 1 1 6 -3
BITMAP
00
ENDCHAR
STARTCHAR U+0021
ENCODING 33
SWIDTH 392 0
DWIDTH 7 0
BBX 1 9 3 0
BITMAP
80
80
80
80
80
00
00
80
80
ENDCHAR
STARTCHAR U+0022
ENCODING 34
SWIDTH 392 0
DWIDTH 7 0
BBX 3 4 2 5
BITMAP
A0
A0
A0
A0
ENDCHAR
STARTCHAR U+0023
ENCODING 35
SWIDTH 392 0
DWIDTH 7 0
BBX 5 8 1 0
BITMAP
50
50
F8
50
50
F8
50
50
ENDCHAR
STARTCHAR U+0024
ENCODING 36
SWIDTH 392 0
DWIDTH 7 0
BBX 5 11 1 -2
BITMAP
20
20
78
80
80
70
08
08
F0
20
20
ENDCHAR
STARTCHAR U+0025
ENCODING 37
SWIDTH 392 0
DWIDTH 7 0
BBX 6 8 0 0
BITMAP
40
A4
A8
50
28
54
94
08
ENDCHAR
STARTCHAR U+0026
ENCODING 38
SWIDTH 392 0
DWIDTH 7 0
BBX 6 9 1 0
BITMAP
40
A0
A0
A0
48
A8
90
98
64
ENDCHAR
STARTCHAR U+0027
ENCODING 39
SWIDTH 392 0
DWIDTH 7 0
BBX 1 4 3 5
BITMAP
80
80
80
80
ENDCHAR
STARTCHAR U+0028
ENCODING 40
SWIDTH 392 0
DWIDTH 7 0
BBX 3 11 2 -2
BITMAP
20
40
40
80
80
80
80
80
40
40
20
ENDCHAR
STARTCHAR U+0029
ENCODING 41
SWIDTH 392 0
DWIDTH 7 0
BBX 3 11 2 -2
BITMAP
80
40
40
20
20
20
20
20
40
40
80
ENDCHAR
STARTCHAR U+002A
ENCODING 42
SWIDTH 392 0
DWIDTH 7 0
BBX 5 5 1 1
BITMAP
20
A8
70
A8
20
ENDCHAR
STARTCHAR U+002B
ENCODING 43
SWIDTH 392 0
DWIDTH 7 0
BBX 5 5 1 1
BITMAP
20
20
F8
20
20
ENDCHAR
STARTCHAR U+002C
ENCODING 44
SWIDTH 392 0
DWIDTH 7 0
BBX 2 5 2 -3
BITMAP
C0
C0
40
40
80
ENDCHAR
STARTCHAR U+002D
ENCODING 45
SWIDTH 392 0
DWIDTH 7 0
BBX 5 1 1 3
BITMAP
F8
ENDCHAR
STARTCHAR U+002E
ENCODING 46
SWIDTH 392 0
DWIDTH 7 0
BBX 2 2 2 0
BITMAP
C0
C0
ENDCHAR
STARTCHAR U+002F
ENCODING 47
SWIDTH 392 0
DWIDTH 7 0
BBX 5 10 1 -1
BITMAP
08
08
10
10
20
20
40
40
80
80
ENDCHAR
STARTCHAR U+0030
ENCODING 48
SWIDTH 392 0
DWIDTH 7 0
BBX 5 8 1 0
BITMAP
70
88
98
A8
C8
88
88
70
ENDCHAR
STARTCHAR U+0031
ENCODING 49
SWIDTH 392 0
DWIDTH 7 0
BBX 5 8 1 0
BITMAP
20
60
A0
20
20
20
20
F8
ENDCHAR
STARTCHAR U+0032
ENCODING 50
SWIDTH 392 0
DWIDTH 7 0
BBX 5 8 1 0
BITMAP
70
88
08
10
20
40
80
F8
ENDCHAR
STARTCHAR U+0033
ENCODING 51
SWIDTH 392 0
DWIDTH 7 0
BBX 5 8 1 0
BITMAP
F8
08
10
30
08
08
88
70
ENDCHAR
STARTCHAR U+0034
ENCODING 52
SWIDTH 392 0
DWIDTH 7 0
BBX 5 8 1 0
BITMAP
10
30
50
90
F8
10
10
10
ENDCHAR
STARTCHAR U+0035
ENCODING 53
SWIDTH 392 0
DWIDTH 7 0
BBX 5 8 1 0
BITMAP
F8
80
80
F0
08
08
88
70
ENDCHAR
STARTCHAR U+0036
ENCODING 54
SWIDTH 392 0
DWIDTH 7 0
BBX 5 8 1 0
BITMAP
30
40
80
F0
88
88
88
70
ENDCHAR
STARTCHAR U+0037
ENCODING 55
SWIDTH 392 0
DWIDTH 7 0
BBX 5 8 1 0
BITMAP
F8
08
10
10
20
20
40
40
ENDCHAR
STARTCHAR U+0038
ENCODING 56
SWIDTH 392 0
DWIDTH 7 0
BBX 5 8 1 0
BITMAP
70
88
88
70
88
88
88
70
ENDCHAR
STARTCHAR U+0039
ENCODING 57
SWIDTH 392 0
DWIDTH 7 0
BBX 5 8 1 0
BITMAP
70
88
88
88
78
08
10
60
ENDCHAR
STARTCHAR U+003A
ENCODING 58
SWIDTH 392 0
DWIDTH 7 0
BBX 2 7 2 0
BITMAP
C0
C0
00
00
00
C0
C0
ENDCHAR
STARTCHAR U+003B
ENCODING 59
SWIDTH 392 0
DWIDTH 7 0
BBX 2 10 2 -3
BITMAP
C0
C0
00
00
00
C0
C0
40
40
80
ENDCHAR
STARTCHAR U+003C
ENCODING 60
SWIDTH 392 0
DWIDTH 7 0
BBX 4 7 2 0
BITMAP
10
20
40
80
40
20
10
ENDCHAR
STARTCHAR U+003D
ENCODING 61
SWIDTH 392 0
DWIDTH 7 0
BBX 5 4 1 2
BITMAP
F8
00
00
F8
ENDCHAR
STARTCHAR U+003E
ENCODING 62
SWIDTH 392 0
DWIDTH 7 0
BBX 4 7 1 0
BITMAP
80
40
20
10
20
40
80
ENDCHAR
STARTCHAR U+003F
ENCODING 63
SWIDTH 392 0
DWIDTH 7 0
BBX 5 9 1 0
BITMAP
70
88
08
10
20
00
00
20
20
ENDCHAR
STARTCHAR U+0040
ENCODING 64
SWIDTH 392 0
DWIDTH 7 0
BBX 5 9 1 -1
BITMAP
70
88
88
98
A8
B8
80
80
78
ENDCHAR
STARTCHAR U+0041
ENCODING 65
SWIDTH 392 0
DWIDTH 7 0
BBX 5 8 1 0
BITMAP
20
20
50
50
50
F8
88
88
ENDCHAR
STARTCHAR U+0042
ENCODING 66
SWIDTH 392 0
DWIDTH 7 0
BBX 5 8 1 0
BITMAP
F0
88
88
F0
88
88
88
F0
ENDCHAR
STARTCHAR U+0043
ENCODING 67
SWIDTH 392 0
DWIDTH 7 0
BBX 5 8 1 0
BITMAP
38
40
80
80
80
80
40
38
ENDCHAR
STARTCHAR U+0044
ENCODING 68
SWIDTH 392 0
DWIDTH 7 0
BBX 5 8 1 0
BITMAP
F0
88
88
88
88
88
90
E0
ENDCHAR
STARTCHAR U+0045
ENCODING 69
SWIDTH 392 0
DWIDTH 7 0
BBX 5 8 1 0
BITMAP
F8
80
80
F0
80
80
80
F8
ENDCHAR
STARTCHAR U+0046
ENCODING 70
SWIDTH 392 0
DWIDTH 7 0
BBX 5 8 1 0
BITMAP
F8
80
80
F0
80
80
80
80
ENDCHAR
STARTCHAR U+0047
ENCODING 71
SWIDTH 392 0
DWIDTH 7 0
BBX 5 8 1 0
BITMAP
38
40
80
80
98
88
48
38
ENDCHAR
STARTCHAR U+0048
ENCODING 72
SWIDTH 392 0
DWIDTH 7 0
BBX 5 8 1 0
BITMAP
88
88
88
F8
88
88
88
88
ENDCHAR
STARTCHAR U+0049
ENCODING 73
SWIDTH 392 0
DWIDTH 7 0
BBX 5 8 1 0
BITMAP
F8
20
20
20
20
20
20
F8
ENDCHAR
STARTCHAR U+004A
ENCODING 74
SWIDTH 392 0
DWIDTH 7 0
BBX 5 8 1 0
BITMAP
08
08
08
08
08
88
88
70
ENDCHAR
STARTCHAR U+004B
ENCODING 75
SWIDTH 392 0
DWIDTH 7 0
BBX 5 8 1 0
BITMAP
88
90
A0
C0
C0
A0
90
88
ENDCHAR
STARTCHAR U+004C
ENCODING 76
SWIDTH 392 0
DWIDTH 7 0
BBX 5 8 1 0
BITMAP
80
80
80
80
80
80
80
F8
ENDCHAR
STARTCHAR U+004D
ENCODING 77
SWIDTH 392 0
DWIDTH 7 0
BBX 5 8 1 0
BITMAP
88
D8
A8
A8
88
88
88
88
ENDCHAR
STARTCHAR U+004E
ENCODING 78
SWIDTH 392 0
DWIDTH 7 0
BBX 5 8 1 0
BITMAP
88
C8
A8
98
88
88
88
88
ENDCHAR
STARTCHAR U+004F
ENCODING 79
SWIDTH 392 0
DWIDTH 7 0
BBX 5 8 1 0
BITMAP
70
88
88
88
88
88
88
70
ENDCHAR
STARTCHAR U+0050
ENCODING 80
SWIDTH 392 0
DWIDTH 7 0
BBX 5 8 1 0
BITMAP
F0
88
88
88
F0
80
80
80
ENDCHAR
STARTCHAR U+0051
ENCODING 81
SWIDTH 392 0
DWIDTH 7 0
BBX 5 10 1 -2
BITMAP
70
88
88
88
88
88
88
70
10
08
ENDCHAR
STARTCHAR U+0052
ENCODING 82
SWIDTH 392 0
DWIDTH 7 0
BBX 5 8 1 0
BITMAP
F0
88
88
88
F0
A0
90
88
ENDCHAR
STARTCHAR U+0053
ENCODING 83
SWIDTH 392 0
DWIDTH 7 0
BBX 5 8 1 0
BITMAP
78
80
80
60
10
08
08
F0
ENDCHAR
STARTCHAR U+0054
ENCODING 84
SWIDTH 392 0
DWIDTH 7 0
BBX 5 8 1 0
BITMAP
F8
20
20
20
20
20
20
20
ENDCHAR
STARTCHAR U+0055
ENCODING 85
SWIDTH 392 0
DWIDTH 7 0
BBX 5 8 1 0
BITMAP
88
88
88
88
88
88
88
70
ENDCHAR
STARTCHAR U+0056
ENCODING 86
SWIDTH 392 0
DWIDTH 7 0
BBX 5 8 1 0
BITMAP
88
88
88
50
50
50
20
20
ENDCHAR
STARTCHAR U+0057
ENCODING 87
SWIDTH 392 0
DWIDTH 7 0
BBX 5 8 1 0
BITMAP
88
88
88
88
A8
A8
A8
D8
ENDCHAR
STARTCHAR U+0058
ENCODING 88
SWIDTH 392 0
DWIDTH 7 0
BBX 5 8 1 0
BITMAP
88
88
50
20
20
50
88
88
ENDCHAR
STARTCHAR U+0059
ENCODING 89
SWIDTH 392 0
DWIDTH 7 0
BBX 5 8 1 0
BITMAP
88
88
50
50
20
20
20
20
ENDCHAR
STARTCHAR U+005A
ENCODING 90
SWIDTH 392 0
DWIDTH 7 0
BBX 5 8 1 0
BITMAP
F8
10
10
20
20
40
40
F8
ENDCHAR
STARTCHAR U+005B
ENCODING 91
SWIDTH 392 0
DWIDTH 7 0
BBX 3 11 2 -2
BITMAP
E0
80
80
80
80
80
80
80
80
80
E0
ENDCHAR
STARTCHAR U+005C
ENCODING 92
SWIDTH 392 0
DWIDTH 7 0
BBX 5 10 1 -1
BITMAP
80
80
40
40
20
20
10
10
08
08
ENDCHAR
STARTCHAR U+005D
ENCODING 93
SWIDTH 392 0
DWIDTH 7 0
BBX 3 11 2 -2
BITMAP
E0
20
20
20
20
20
20
20
20
20
E0
ENDCHAR
STARTCHAR U+005E
ENCODING 94
SWIDTH 392 0
DWIDTH 7 0
BBX 5 3 1 5
BITMAP
20
50
88
ENDCHAR
STARTCHAR U+005F
ENCODING 95
SWIDTH 392 0
DWIDTH 7 0
BBX 7 1 0 -2
BITMAP
FE
ENDCHAR
STARTCHAR U+0060
ENCODING 96
SWIDTH 392 0
DWIDTH 7 0
BBX 3 3 2 6
BITMAP
80
40
20
ENDCHAR
STARTCHAR U+0061
ENCODING 97
SWIDTH 392 0
DWIDTH 7 0
BBX 5 6 1 0
BITMAP
70
08
78
88
88
78
ENDCHAR
STARTCHAR U+0062
ENCODING 98
SWIDTH 392 0
DWIDTH 7 0
BBX 5 8 1 0
BITMAP
80
80
F0
88
88
88
88
F0
ENDCHAR
STARTCHAR U+0063
ENCODING 99
SWIDTH 392 0
DWIDTH 7 0
BBX 5 6 1 0
BITMAP
78
80
80
80
80
78
ENDCHAR
STARTCHAR U+0064
ENCODING 100
SWIDTH 392 0
DWIDTH 7 0
BBX 5 8 1 0
BITMAP
08
08
78
88
88
88
88
78
ENDCHAR
STARTCHAR U+0065
ENCODING 101
SWIDTH 392 0
DWIDTH 7 0
BBX 5 6 1 0
BITMAP
70
88
F8
80
80
78
ENDCHAR
STARTCHAR U+0066
ENCODING 102
SWIDTH 392 0
DWIDTH 7 0
BBX 5 8 1 0
BITMAP
38
40
F8
40
40
40
40
40
ENDCHAR
STARTCHAR U+0067
ENCODING 103
SWIDTH 392 0
DWIDTH 7 0
BBX 5 8 1 -2
BITMAP
78
88
88
88
88
78
08
70
ENDCHAR
STARTCHAR U+0068
ENCODING 104
SWIDTH 392 0
DWIDTH 7 0
BBX 5 8 1 0
BITMAP
80
80
F0
88
88
88
88
88
ENDCHAR
STARTCHAR U+0069
ENCODING 105
SWIDTH 392 0
DWIDTH 7 0
BBX 5 9 1 0
BITMAP
20
20
00
E0
20
20
20
20
F8
ENDCHAR
STARTCHAR U+006A
ENCODING 106
SWIDTH 392 0
DWIDTH 7 0
BBX 4 11 1 -2
BITMAP
10
10
00
70
10
10
10
10
10
10
E0
ENDCHAR
STARTCHAR U+006B
ENCODING 107
SWIDTH 392 0
DWIDTH 7 0
BBX 5 8 1 0
BITMAP
80
80
90
A0
C0
A0
90
88
ENDCHAR
STARTCHAR U+006C
ENCODING 108
SWIDTH 392 0
DWIDTH 7 0
BBX 5 8 1 0
BITMAP
E0
20
20
20
20
20
20
F8
ENDCHAR
STARTCHAR U+006D
ENCODING 109
SWIDTH 392 0
DWIDTH 7 0
BBX 5 6 1 0
BITMAP
D8
A8
A8
A8
A8
A8
ENDCHAR
STARTCHAR U+006E
ENCODING 110
SWIDTH 392 0
DWIDTH 7 0
BBX 5 6 1 0
BITMAP
F0
88
88
88
88
88
ENDCHAR
STARTCHAR U+006F
ENCODING 111
SWIDTH 392 0
DWIDTH 7 0
BBX 5 6 1 0
BITMAP
70
88
88
88
88
70
ENDCHAR
STARTCHAR U+0070
ENCODING 112
SWIDTH 392 0
DWIDTH 7 0
BBX 5 8 1 -2
BITMAP
F0
88
88
88
88
F0
80
80
ENDCHAR
STARTCHAR U+0071
ENCODING 113
SWIDTH 392 0
DWIDTH 7 0
BBX 5 8 1 -2
BITMAP
78
88
88
88
88
78
08
08
ENDCHAR
STARTCHAR U+0072
ENCODING 114
SWIDTH 392 0
DWIDTH 7 0
BBX 5 6 1 0
BITMAP
B8
C0
80
80
80
80
ENDCHAR
STARTCHAR U+0073
ENCODING 115
SWIDTH 392 0
DWIDTH 7 0
BBX 5 6 1 0
BITMAP
78
80
60
10
08
F0
ENDCHAR
STARTCHAR U+0074
ENCODING 116
SWIDTH 392 0
DWIDTH 7 0
BBX 5 8 1 0
BITMAP
40
40
F8
40
40
40
40
38
ENDCHAR
STARTCHAR U+0075
ENCODING 117
SWIDTH 392 0
DWIDTH 7 0
BBX 5 6 1 0
BITMAP
88
88
88
88
88
78
ENDCHAR
STARTCHAR U+0076
ENCODING 118
SWIDTH 392 0
DWIDTH 7 0
BBX 5 6 1 0
BITMAP
88
88
50
50
20
20
ENDCHAR
STARTCHAR U+0077
ENCODING 119
SWIDTH 392 0
DWIDTH 7 0
BBX 5 6 1 0
BITMAP
88
88
A8
A8
A8
D8
ENDCHAR
STARTCHAR U+0078
ENCODING 120
SWIDTH 392 0
DWIDTH 7 0
BBX 5 6 1 0
BITMAP
88
50
20
20
50
88
ENDCHAR
STARTCHAR U+0079
ENCODING 121
SWIDTH 392 0
DWIDTH 7 0
BBX 5 8 1 -2
BITMAP
88
88
88
88
88
78
08
70
ENDCHAR
STARTCHAR U+007A
ENCODING 122
SWIDTH 392 0
DWIDTH 7 0
BBX 5 6 1 0
BITMAP
F8
10
20
20
40
F8
ENDCHAR
STARTCHAR U+007B
ENCODING 123
SWIDTH 392 0
DWIDTH 7 0
BBX 5 11 1 -2
BITMAP
18
20
20
20
20
C0
20
20
20
20
18
ENDCHAR
STARTCHAR U+007C
ENCODING 124
SWIDTH 392 0
DWIDTH 7 0
BBX 1 10 3 -1
BITMAP
80
80
80
80
80
80
80
80
80
80
ENDCHAR
STARTCHAR U+007D
ENCODING 125
SWIDTH 392 0
DWIDTH 7 0
BBX 5 11 1 -2
BITMAP
C0
20
20
20
20
18
20
20
20
20
C0
ENDCHAR
STARTCHAR U+007E
ENCODING 126
SWIDTH 392 0
DWIDTH 7 0
BBX 5 3 1 5
BITMAP
48
A8
90
ENDCHAR
STARTCHAR uni0095
ENCODING 149
SWIDTH 1000 0
DWIDTH 14 0
BBX 1 1 7 5
BITMAP
80
ENDCHAR
STARTCHAR U+00A0
ENCODING 160
SWIDTH 392 0
DWIDTH 7 0
BBX 1 1 6 -3
BITMAP
00
ENDCHAR
STARTCHAR U+00A1
ENCODING 161
SWIDTH 392 0
DWIDTH 7 0
BBX 1 9 3 -2
BITMAP
80
80
00
00
80
80
80
80
80
ENDCHAR
STARTCHAR U+00A2
ENCODING 162
SWIDTH 392 0
DWIDTH 7 0
BBX 5 10 1 -1
BITMAP
20
20
70
88
80
80
88
70
20
20
ENDCHAR
STARTCHAR U+00A3
ENCODING 163
SWIDTH 392 0
DWIDTH 7 0
BBX 5 8 1 0
BITMAP
30
40
40
F0
40
40
40
F8
ENDCHAR
STARTCHAR U+00A4
ENCODING 164
SWIDTH 392 0
DWIDTH 7 0
BBX 5 5 1 2
BITMAP
88
70
50
70
88
ENDCHAR
STARTCHAR U+00A5
ENCODING 165
SWIDTH 392 0
DWIDTH 7 0
BBX 5 8 1 0
BITMAP
88
50
20
F8
20
F8
20
20
ENDCHAR
STARTCHAR U+00A6
ENCODING 166
SWIDTH 392 0
DWIDTH 7 0
BBX 1 9 3 -1
BITMAP
80
80
80
80
00
80
80
80
80
ENDCHAR
STARTCHAR U+00A7
ENCODING 167
SWIDTH 392 0
DWIDTH 7 0
BBX 1 1 6 -3
BITMAP
00
ENDCHAR
STARTCHAR U+00A8
ENCODING 168
SWIDTH 1000 0
DWIDTH 7 0
BBX 7 7 0 0
BITMAP
02
06
0E
1E
3E
7E
FE
ENDCHAR
STARTCHAR U+00A9
ENCODING 169
SWIDTH 392 0
DWIDTH 7 0
BBX 6 8 0 0
BITMAP
78
84
94
A4
A4
94
84
78
ENDCHAR
STARTCHAR ordfeminine
ENCODING 170
SWIDTH 1000 0
DWIDTH 7 0
BBX 7 7 0 0
BITMAP
80
C0
E0
F0
F8
FC
FE
ENDCHAR
STARTCHAR U+00AB
ENCODING 171
SWIDTH 392 0
DWIDTH 7 0
BBX 6 5 1 0
BITMAP
24
48
90
48
24
ENDCHAR
STARTCHAR U+00AC
ENCODING 172
SWIDTH 392 0
DWIDTH 7 0
BBX 1 1 6 -3
BITMAP
00
ENDCHAR
STARTCHAR U+00AD
ENCODING 173
SWIDTH 392 0
DWIDTH 7 0
BBX 5 1 1 3
BITMAP
F8
ENDCHAR
STARTCHAR U+00AE
ENCODING 174
SWIDTH 392 0
DWIDTH 7 0
BBX 1 1 6 -3
BITMAP
00
ENDCHAR
STARTCHAR U+00AF
ENCODING 175
SWIDTH 392 0
DWIDTH 7 0
BBX 1 1 6 -3
BITMAP
00
ENDCHAR
STARTCHAR U+00B0
ENCODING 176
SWIDTH 392 0
DWIDTH 7 0
BBX 4 4 1 4
BITMAP
60
90
90
60
ENDCHAR
STARTCHAR U+00B1
ENCODING 177
SWIDTH 392 0
DWIDTH 7 0
BBX 1 1 6 -3
BITMAP
00
ENDCHAR
STARTCHAR U+00B2
ENCODING 178
SWIDTH 392 0
DWIDTH 7 0
BBX 1 1 6 -3
BITMAP
00
ENDCHAR
STARTCHAR U+00B3
ENCODING 179
SWIDTH 392 0
DWIDTH 7 0
BBX 1 1 6 -3
BITMAP
00
ENDCHAR
STARTCHAR U+00B4
ENCODING 180
SWIDTH 392 0
DWIDTH 7 0
BBX 2 2 3 7
BITMAP
40
80
ENDCHAR
STARTCHAR U+00B5
ENCODING 181
SWIDTH 392 0
DWIDTH 7 0
BBX 1 1 6 -3
BITMAP
00
ENDCHAR
STARTCHAR U+00B6
ENCODING 182
SWIDTH 392 0
DWIDTH 7 0
BBX 1 1 6 -3
BITMAP
00
ENDCHAR
STARTCHAR U+00B7
ENCODING 183
SWIDTH 392 0
DWIDTH 7 0
BBX 7 7 0 0
BITMAP
FE
FE
FE
FE
FE
FE
FE
ENDCHAR
STARTCHAR U+00B8
ENCODING 184
SWIDTH 392 0
DWIDTH 7 0
BBX 2 3 3 -3
BITMAP
40
40
80
ENDCHAR
STARTCHAR U+00B9
ENCODING 185
SWIDTH 392 0
DWIDTH 7 0
BBX 1 1 6 -3
BITMAP
00
ENDCHAR
STARTCHAR U+00BB
ENCODING 187
SWIDTH 392 0
DWIDTH 7 0
BBX 6 5 1 0
BITMAP
90
48
24
48
90
ENDCHAR
STARTCHAR U+00BC
ENCODING 188
SWIDTH 392 0
DWIDTH 7 0
BBX 1 1 6 -3
BITMAP
00
ENDCHAR
STARTCHAR U+00BD
ENCODING 189
SWIDTH 392 0
DWIDTH 7 0
BBX 1 1 6 -3
BITMAP
00
ENDCHAR
STARTCHAR U+00BE
ENCODING 190
SWIDTH 392 0
DWIDTH 7 0
BBX 1 1 6 -3
BITMAP
00
ENDCHAR
STARTCHAR U+00BF
ENCODING 191
SWIDTH 392 0
DWIDTH 7 0
BBX 5 9 1 -2
BITMAP
20
20
00
00
20
40
80
88
70
ENDCHAR
STARTCHAR U+00C0
ENCODING 192
SWIDTH 392 0
DWIDTH 7 0
BBX 5 10 1 0
BITMAP
40
20
00
20
20
50
50
F8
88
88
ENDCHAR
STARTCHAR U+00C1
ENCODING 193
SWIDTH 392 0
DWIDTH 7 0
BBX 5 10 1 0
BITMAP
10
20
00
20
20
50
50
F8
88
88
ENDCHAR
STARTCHAR U+00C2
ENCODING 194
SWIDTH 392 0
DWIDTH 7 0
BBX 5 10 1 0
BITMAP
20
50
00
20
20
50
50
F8
88
88
ENDCHAR
STARTCHAR U+00C3
ENCODING 195
SWIDTH 392 0
DWIDTH 7 0
BBX 5 10 1 0
BITMAP
68
B0
00
20
20
50
50
F8
88
88
ENDCHAR
STARTCHAR U+00C4
ENCODING 196
SWIDTH 392 0
DWIDTH 7 0
BBX 5 10 1 0
BITMAP
50
00
20
20
50
50
50
F8
88
88
ENDCHAR
STARTCHAR U+00C5
ENCODING 197
SWIDTH 392 0
DWIDTH 7 0
BBX 5 10 1 0
BITMAP
20
50
50
20
20
50
50
F8
88
88
ENDCHAR
STARTCHAR U+00C6
ENCODING 198
SWIDTH 392 0
DWIDTH 7 0
BBX 6 8 1 0
BITMAP
3C
30
50
5C
50
F0
90
9C
ENDCHAR
STARTCHAR U+00C7
ENCODING 199
SWIDTH 392 0
DWIDTH 7 0
BBX 5 11 1 -3
BITMAP
38
40
80
80
80
80
40
38
10
10
20
ENDCHAR
STARTCHAR U+00C8
ENCODING 200
SWIDTH 392 0
DWIDTH 7 0
BBX 5 10 1 0
BITMAP
40
20
00
F8
80
80
F0
80
80
F8
ENDCHAR
STARTCHAR U+00C9
ENCODING 201
SWIDTH 392 0
DWIDTH 7 0
BBX 5 10 1 0
BITMAP
10
20
00
F8
80
80
F0
80
80
F8
ENDCHAR
STARTCHAR U+00CA
ENCODING 202
SWIDTH 392 0
DWIDTH 7 0
BBX 5 10 1 0
BITMAP
20
50
00
F8
80
80
F0
80
80
F8
ENDCHAR
STARTCHAR U+00CB
ENCODING 203
SWIDTH 392 0
DWIDTH 7 0
BBX 5 10 1 0
BITMAP
50
00
F8
80
80
F0
80
80
80
F8
ENDCHAR
STARTCHAR U+00CC
ENCODING 204
SWIDTH 392 0
DWIDTH 7 0
BBX 5 10 1 0
BITMAP
40
20
00
F8
20
20
20
20
20
F8
ENDCHAR
STARTCHAR U+00CD
ENCODING 205
SWIDTH 392 0
DWIDTH 7 0
BBX 5 10 1 0
BITMAP
10
20
00
F8
20
20
20
20
20
F8
ENDCHAR
STARTCHAR U+00CE
ENCODING 206
SWIDTH 392 0
DWIDTH 7 0
BBX 5 10 1 0
BITMAP
20
50
00
F8
20
20
20
20
20
F8
ENDCHAR
STARTCHAR U+00CF
ENCODING 207
SWIDTH 392 0
DWIDTH 7 0
BBX 5 10 1 0
BITMAP
50
00
F8
20
20
20
20
20
20
F8
ENDCHAR
STARTCHAR U+00D0
ENCODING 208
SWIDTH 392 0
DWIDTH 7 0
BBX 6 8 0 0
BITMAP
70
48
44
E4
44
44
48
70
ENDCHAR
STARTCHAR U+00D1
ENCODING 209
SWIDTH 392 0
DWIDTH 7 0
BBX 5 10 1 0
BITMAP
68
B0
00
88
C8
A8
98
88
88
88
ENDCHAR
STARTCHAR U+00D2
ENCODING 210
SWIDTH 392 0
DWIDTH 7 0
BBX 5 10 1 0
BITMAP
40
20
00
70
88
88
88
88
88
70
ENDCHAR
STARTCHAR U+00D3
ENCODING 211
SWIDTH 392 0
DWIDTH 7 0
BBX 5 10 1 0
BITMAP
10
20
00
70
88
88
88
88
88
70
ENDCHAR
STARTCHAR U+00D4
ENCODING 212
SWIDTH 392 0
DWIDTH 7 0
BBX 5 10 1 0
BITMAP
20
50
00
70
88
88
88
88
88
70
ENDCHAR
STARTCHAR U+00D5
ENCODING 213
SWIDTH 392 0
DWIDTH 7 0
BBX 5 10 1 0
BITMAP
68
B0
00
70
88
88
88
88
88
70
ENDCHAR
STARTCHAR U+00D6
ENCODING 214
SWIDTH 392 0
DWIDTH 7 0
BBX 5 10 1 0
BITMAP
50
00
70
88
88
88
88
88
88
70
ENDCHAR
STARTCHAR U+00D7
ENCODING 215
SWIDTH 392 0
DWIDTH 7 0
BBX 5 5 1 1
BITMAP
88
50
20
50
88
ENDCHAR
STARTCHAR U+00D8
ENCODING 216
SWIDTH 392 0
DWIDTH 7 0
BBX 5 10 1 -1
BITMAP
08
70
98
98
A8
A8
C8
C8
70
80
ENDCHAR
STARTCHAR U+00D9
ENCODING 217
SWIDTH 392 0
DWIDTH 7 0
BBX 5 10 1 0
BITMAP
40
20
00
88
88
88
88
88
88
70
ENDCHAR
STARTCHAR U+00DA
ENCODING 218
SWIDTH 392 0
DWIDTH 7 0
BBX 5 10 1 0
BITMAP
10
20
00
88
88
88
88
88
88
70
ENDCHAR
STARTCHAR U+00DB
ENCODING 219
SWIDTH 392 0
DWIDTH 7 0
BBX 5 10 1 0
BITMAP
20
50
00
88
88
88
88
88
88
70
ENDCHAR
STARTCHAR U+00DC
ENCODING 220
SWIDTH 392 0
DWIDTH 7 0
BBX 5 10 1 0
BITMAP
50
00
88
88
88
88
88
88
88
70
ENDCHAR
STARTCHAR U+00DD
ENCODING 221
SWIDTH 392 0
DWIDTH 7 0
BBX 5 10 1 0
BITMAP
10
20
88
88
50
50
20
20
20
20
ENDCHAR
STARTCHAR U+00DE
ENCODING 222
SWIDTH 392 0
DWIDTH 7 0
BBX 5 8 1 0
BITMAP
80
F0
88
88
88
88
F0
80
ENDCHAR
STARTCHAR U+00DF
ENCODING 223
SWIDTH 392 0
DWIDTH 7 0
BBX 5 8 1 0
BITMAP
70
88
90
B0
88
88
88
B0
ENDCHAR
STARTCHAR U+00E0
ENCODING 224
SWIDTH 392 0
DWIDTH 7 0
BBX 5 9 1 0
BITMAP
40
20
00
70
08
78
88
88
78
ENDCHAR
STARTCHAR U+00E1
ENCODING 225
SWIDTH 392 0
DWIDTH 7 0
BBX 5 9 1 0
BITMAP
10
20
00
70
08
78
88
88
78
ENDCHAR
STARTCHAR U+00E2
ENCODING 226
SWIDTH 392 0
DWIDTH 7 0
BBX 5 10 1 0
BITMAP
20
50
00
00
70
08
78
88
88
78
ENDCHAR
STARTCHAR U+00E3
ENCODING 227
SWIDTH 392 0
DWIDTH 7 0
BBX 5 9 1 0
BITMAP
68
B0
00
70
08
78
88
88
78
ENDCHAR
STARTCHAR U+00E4
ENCODING 228
SWIDTH 392 0
DWIDTH 7 0
BBX 5 8 1 0
BITMAP
50
00
70
08
78
88
88
78
ENDCHAR
STARTCHAR U+00E5
ENCODING 229
SWIDTH 392 0
DWIDTH 7 0
BBX 5 10 1 0
BITMAP
30
48
30
00
70
08
78
88
88
78
ENDCHAR
STARTCHAR U+00E6
ENCODING 230
SWIDTH 392 0
DWIDTH 7 0
BBX 7 6 0 0
BITMAP
6C
12
7E
90
90
6E
ENDCHAR
STARTCHAR U+00E7
ENCODING 231
SWIDTH 392 0
DWIDTH 7 0
BBX 5 9 1 -3
BITMAP
78
80
80
80
80
78
10
10
20
ENDCHAR
STARTCHAR U+00E8
ENCODING 232
SWIDTH 392 0
DWIDTH 7 0
BBX 5 9 1 0
BITMAP
40
20
00
70
88
F8
80
80
78
ENDCHAR
STARTCHAR U+00E9
ENCODING 233
SWIDTH 392 0
DWIDTH 7 0
BBX 5 9 1 0
BITMAP
10
20
00
70
88
F8
80
80
78
ENDCHAR
STARTCHAR U+00EA
ENCODING 234
SWIDTH 392 0
DWIDTH 7 0
BBX 5 10 1 0
BITMAP
20
50
00
00
70
88
F8
80
80
78
ENDCHAR
STARTCHAR U+00EB
ENCODING 235
SWIDTH 392 0
DWIDTH 7 0
BBX 5 8 1 0
BITMAP
50
00
70
88
F8
80
80
78
ENDCHAR
STARTCHAR U+00EC
ENCODING 236
SWIDTH 392 0
DWIDTH 7 0
BBX 5 9 1 0
BITMAP
40
20
00
E0
20
20
20
20
F8
ENDCHAR
STARTCHAR U+00ED
ENCODING 237
SWIDTH 392 0
DWIDTH 7 0
BBX 5 9 1 0
BITMAP
10
20
00
E0
20
20
20
20
F8
ENDCHAR
STARTCHAR U+00EE
ENCODING 238
SWIDTH 392 0
DWIDTH 7 0
BBX 5 10 1 0
BITMAP
20
50
00
00
E0
20
20
20
20
F8
ENDCHAR
STARTCHAR U+00EF
ENCODING 239
SWIDTH 392 0
DWIDTH 7 0
BBX 5 8 1 0
BITMAP
50
00
E0
20
20
20
20
F8
ENDCHAR
STARTCHAR U+00F0
ENCODING 240
SWIDTH 392 0
DWIDTH 7 0
BBX 5 10 1 0
BITMAP
48
30
F0
08
78
88
88
88
88
70
ENDCHAR
STARTCHAR U+00F1
ENCODING 241
SWIDTH 392 0
DWIDTH 7 0
BBX 5 9 1 0
BITMAP
68
B0
00
F0
88
88
88
88
88
ENDCHAR
STARTCHAR U+00F2
ENCODING 242
SWIDTH 392 0
DWIDTH 7 0
BBX 5 9 1 0
BITMAP
40
20
00
70
88
88
88
88
70
ENDCHAR
STARTCHAR U+00F3
ENCODING 243
SWIDTH 392 0
DWIDTH 7 0
BBX 5 9 1 0
BITMAP
10
20
00
70
88
88
88
88
70
ENDCHAR
STARTCHAR U+00F4
ENCODING 244
SWIDTH 392 0
DWIDTH 7 0
BBX 5 10 1 0
BITMAP
20
50
00
00
70
88
88
88
88
70
ENDCHAR
STARTCHAR U+00F5
ENCODING 245
SWIDTH 392 0
DWIDTH 7 0
BBX 5 9 1 0
BITMAP
68
B0
00
70
88
88
88
88
70
ENDCHAR
STARTCHAR U+00F6
ENCODING 246
SWIDTH 392 0
DWIDTH 7 0
BBX 5 8 1 0
BITMAP
50
00
70
88
88
88
88
70
ENDCHAR
STARTCHAR U+00F7
ENCODING 247
SWIDTH 392 0
DWIDTH 7 0
BBX 5 7 1 0
BITMAP
20
20
00
F8
00
20
20
ENDCHAR
STARTCHAR U+00F8
ENCODING 248
SWIDTH 392 0
DWIDTH 7 0
BBX 5 8 1 -1
BITMAP
08
70
98
A8
A8
C8
70
80
ENDCHAR
STARTCHAR U+00F9
ENCODING 249
SWIDTH 392 0
DWIDTH 7 0
BBX 5 9 1 0
BITMAP
40
20
00
88
88
88
88
88
78
ENDCHAR
STARTCHAR U+00FA
ENCODING 250
SWIDTH 392 0
DWIDTH 7 0
BBX 5 9 1 0
BITMAP
10
20
00
88
88
88
88
88
78
ENDCHAR
STARTCHAR U+00FB
ENCODING 251
SWIDTH 392 0
DWIDTH 7 0
BBX 5 10 1 0
BITMAP
20
50
00
00
88
88
88
88
88
78
ENDCHAR
STARTCHAR U+00FC
ENCODING 252
SWIDTH 392 0
DWIDTH 7 0
BBX 5 8 1 0
BITMAP
50
00
88
88
88
88
88
78
ENDCHAR
STARTCHAR U+00FD
ENCODING 253
SWIDTH 392 0
DWIDTH 7 0
BBX 5 11 1 -2
BITMAP
10
20
00
88
88
88
88
88
78
08
70
ENDCHAR
STARTCHAR U+00FE
ENCODING 254
SWIDTH 392 0
DWIDTH 7 0
BBX 5 10 1 -2
BITMAP
80
80
F0
88
88
88
88
F0
80
80
ENDCHAR
STARTCHAR U+00FF
ENCODING 255
SWIDTH 392 0
DWIDTH 7 0
BBX 5 10 1 -2
BITMAP
50
00
88
88
88
88
88
78
08
70
ENDCHAR
STARTCHAR U+03C0
ENCODING 960
SWIDTH 392 0
DWIDTH 7 0
BBX 1 1 6 -3
BITMAP
00
ENDCHAR
STARTCHAR U+09E8
ENCODING 2536
SWIDTH 392 0
DWIDTH 7 0
BBX 1 1 6 -3
BITMAP
00
ENDCHAR
STARTCHAR U+09E9
ENCODING 2537
SWIDTH 392 0
DWIDTH 7 0
BBX 1 1 6 -3
BITMAP
00
ENDCHAR
STARTCHAR U+2260
ENCODING 8800
SWIDTH 392 0
DWIDTH 7 0
BBX 1 1 6 -3
BITMAP
00
ENDCHAR
STARTCHAR U+2264
ENCODING 8804
SWIDTH 392 0
DWIDTH 7 0
BBX 1 1 6 -3
BITMAP
00
ENDCHAR
STARTCHAR U+2265
ENCODING 8805
SWIDTH 392 0
DWIDTH 7 0
BBX 1 1 6 -3
BITMAP
00
ENDCHAR
STARTCHAR U+23BA
ENCODING 9146
SWIDTH 392 0
DWIDTH 7 0
BBX 1 1 6 -3
BITMAP
00
ENDCHAR
STARTCHAR U+23BB
ENCODING 9147
SWIDTH 392 0
DWIDTH 7 0
BBX 1 1 6 -3
BITMAP
00
ENDCHAR
STARTCHAR U+23BC
ENCODING 9148
SWIDTH 392 0
DWIDTH 7 0
BBX 1 1 6 -3
BITMAP
00
ENDCHAR
STARTCHAR U+23BD
ENCODING 9149
SWIDTH 392 0
DWIDTH 7 0
BBX 1 1 6 -3
BITMAP
00
ENDCHAR
STARTCHAR U+2409
ENCODING 9225
SWIDTH 392 0
DWIDTH 7 0
BBX 1 1 6 -3
BITMAP
00
ENDCHAR
STARTCHAR U+240A
ENCODING 9226
SWIDTH 392 0
DWIDTH 7 0
BBX 1 1 6 -3
BITMAP
00
ENDCHAR
STARTCHAR U+240C
ENCODING 9228
SWIDTH 392 0
DWIDTH 7 0
BBX 1 1 6 -3
BITMAP
00
ENDCHAR
STARTCHAR U+240D
ENCODING 9229
SWIDTH 392 0
DWIDTH 7 0
BBX 1 1 6 -3
BITMAP
00
ENDCHAR
STARTCHAR U+2500
ENCODING 9472
SWIDTH 392 0
DWIDTH 7 0
BBX 7 1 0 3
BITMAP
FE
ENDCHAR
STARTCHAR U+2502
ENCODING 9474
SWIDTH 392 0
DWIDTH 7 0
BBX 1 14 3 -3
BITMAP
80
80
80
80
80
80
80
80
80
80
80
80
80
80
ENDCHAR
STARTCHAR U+250C
ENCODING 9484
SWIDTH 392 0
DWIDTH 7 0
BBX 4 7 3 -3
BITMAP
F0
80
80
80
80
80
80
ENDCHAR
STARTCHAR U+2510
ENCODING 9488
SWIDTH 392 0
DWIDTH 7 0
BBX 4 7 0 -3
BITMAP
F0
10
10
10
10
10
10
ENDCHAR
STARTCHAR U+2514
ENCODING 9492
SWIDTH 392 0
DWIDTH 7 0
BBX 4 8 3 3
BITMAP
80
80
80
80
80
80
80
F0
ENDCHAR
STARTCHAR U+2518
ENCODING 9496
SWIDTH 392 0
DWIDTH 7 0
BBX 4 8 0 3
BITMAP
10
10
10
10
10
10
10
F0
ENDCHAR
STARTCHAR U+251C
ENCODING 9500
SWIDTH 392 0
DWIDTH 7 0
BBX 4 14 3 -3
BITMAP
80
80
80
80
80
80
80
F0
80
80
80
80
80
80
ENDCHAR
STARTCHAR U+2524
ENCODING 9508
SWIDTH 392 0
DWIDTH 7 0
BBX 4 14 0 -3
BITMAP
10
10
10
10
10
10
10
F0
10
10
10
10
10
10
ENDCHAR
STARTCHAR U+252C
ENCODING 9516
SWIDTH 392 0
DWIDTH 7 0
BBX 7 7 0 -3
BITMAP
FE
10
10
10
10
10
10
ENDCHAR
STARTCHAR U+2534
ENCODING 9524
SWIDTH 392 0
DWIDTH 7 0
BBX 7 8 0 3
BITMAP
10
10
10
10
10
10
10
FE
ENDCHAR
STARTCHAR U+253C
ENCODING 9532
SWIDTH 392 0
DWIDTH 7 0
BBX 7 14 0 -3
BITMAP
10
10
10
10
10
10
10
FE
10
10
10
10
10
10
ENDCHAR
STARTCHAR U+2592
ENCODING 9618
SWIDTH 392 0
DWIDTH 7 0
BBX 7 14 0 -3
BITMAP
92
24
48
92
24
48
92
24
48
92
24
48
92
24
ENDCHAR
STARTCHAR H18543
ENCODING 9642
SWIDTH 500 0
DWIDTH 7 0
BBX 7 7 0 0
BITMAP
FE
FE
FE
FE
FE
FE
FE
ENDCHAR
STARTCHAR uni25AE
ENCODING 9646
SWIDTH 500 0
DWIDTH 7 0
BBX 7 10 0 -1
BITMAP
FE
FE
FE
FE
FE
FE
FE
FE
FE
FE
ENDCHAR
STARTCHAR U+25C6
ENCODING 9670
SWIDTH 392 0
DWIDTH 7 0
BBX 1 1 6 -3
BITMAP
00
ENDCHAR
STARTCHAR H18533
ENCODING 9679
SWIDTH 500 0
DWIDTH 7 0
BBX 7 7 0 0
BITMAP
38
7C
FE
FE
FE
7C
38
ENDCHAR
STARTCHAR uni25E2
ENCODING 9698
SWIDTH 500 0
DWIDTH 7 0
BBX 7 7 0 0
BITMAP
02
06
0E
1E
3E
7E
FE
ENDCHAR
STARTCHAR uni25E3
ENCODING 9699
SWIDTH 1000 0
DWIDTH 7 0
BBX 7 7 0 0
BITMAP
80
C0
E0
F0
F8
FC
FE
ENDCHAR
STARTCHAR uni25E4
ENCODING 9700
SWIDTH 500 0
DWIDTH 7 0
BBX 7 7 0 0
BITMAP
FE
FC
F8
F0
E0
C0
80
ENDCHAR
STARTCHAR uni25E5
ENCODING 9701
SWIDTH 500 0
DWIDTH 7 0
BBX 7 7 0 0
BITMAP
FE
7E
3E
1E
0E
06
02
ENDCHAR
STARTCHAR uni2768
ENCODING 10088
SWIDTH 1000 0
DWIDTH 7 0
BBX 4 10 3 -1
BITMAP
C0
60
30
10
00
00
10
30
60
C0
ENDCHAR
STARTCHAR uni2769
ENCODING 10089
SWIDTH 1000 0
DWIDTH 7 0
BBX 7 10 0 -1
BITMAP
CC
66
32
98
CC
CC
98
32
66
CC
ENDCHAR
STARTCHAR uni276A
ENCODING 10090
SWIDTH 1000 0
DWIDTH 7 0
BBX 7 10 0 -1
BITMAP
66
32
98
CC
66
66
CC
98
32
66
ENDCHAR
STARTCHAR uni276B
ENCODING 10091
SWIDTH 1000 0
DWIDTH 7 0
BBX 7 10 0 -1
BITMAP
30
98
CC
66
32
32
66
CC
98
30
ENDCHAR
STARTCHAR uni276D
ENCODING 10093
SWIDTH 1000 0
DWIDTH 7 0
BBX 7 10 1 -1
BITMAP
E0
70
38
1C
0E
0E
1C
38
70
E0
ENDCHAR
STARTCHAR uni276F
ENCODING 10095
SWIDTH 500 0
DWIDTH 7 0
BBX 7 10 0 -1
BITMAP
E0
70
38
1C
0E
0E
1C
38
70
E0
ENDCHAR
STARTCHAR uBBBBB
ENCODING -1
SWIDTH 500 0
DWIDTH 7 0
BBX 7 7 0 0
BITMAP
FE
3E
CE
F2
FC
FE
FE
ENDCHAR
STARTCHAR uBBBBC
ENCODING -1
SWIDTH 500 0
DWIDTH 7 0
BBX 7 7 0 0
BITMAP
FE
F8
E6
9E
7E
FE
FE
ENDCHAR
STARTCHAR uBBBBD
ENCODING -1
SWIDTH 500 0
DWIDTH 7 0
BBX 7 7 0 0
BITMAP
FE
C0
B0
8C
82
80
FE
ENDCHAR
STARTCHAR uBBBBE
ENCODING -1
SWIDTH 500 0
DWIDTH 7 0
BBX 7 7 0 0
BITMAP
FE
06
1A
62
82
02
FE
ENDCHAR
ENDFONT
